<svg width="290" height="195" viewBox="0 0 290 195" fill="none" xmlns="http://www.w3.org/2000/svg">
<path d="M280 15H10C4.47715 15 0 19.4772 0 25V185C0 190.523 4.47715 195 10 195H280C285.523 195 290 190.523 290 185V25C290 19.4772 285.523 15 280 15Z" fill="#3F62DA"/>
<path d="M198.6 55.28H187.72C187.72 36.8 201.24 35.2 206.28 35.2C217.16 35.2 225.8 41.6 225.8 53.12C225.8 62.88 219.48 67.84 213.96 71.6C206.44 76.88 202.52 79.44 201.24 82.08H225.88V92H187.08C187.48 85.36 187.96 78.4 200.28 69.44C210.52 62 214.6 59.12 214.6 52.72C214.6 48.96 212.2 44.64 206.76 44.64C198.92 44.64 198.68 51.12 198.6 55.28ZM246.493 67.12V59.12H248.253C251.613 59.12 257.773 58.8 257.773 51.44C257.773 49.36 256.813 44.16 250.653 44.16C242.973 44.16 242.973 51.44 242.973 53.44H232.573C232.573 42.8 238.573 35.2 251.373 35.2C258.973 35.2 268.973 39.04 268.973 51.04C268.973 56.8 265.373 60.4 262.173 61.84V62C264.173 62.56 270.733 65.52 270.733 75.2C270.733 85.92 262.813 93.52 251.373 93.52C246.013 93.52 231.613 92.32 231.613 74.56H242.573L242.493 74.64C242.493 77.68 243.293 84.56 250.813 84.56C255.293 84.56 259.213 81.52 259.213 75.2C259.213 67.44 251.693 67.12 246.493 67.12Z" fill="white"/>
<path d="M279.3 47.25C278.446 47.25 277.676 47.131 276.99 46.893C276.318 46.655 275.744 46.326 275.268 45.906C274.806 45.486 274.449 44.996 274.197 44.436C273.959 43.89 273.84 43.295 273.84 42.651C273.84 42.273 273.868 41.923 273.924 41.601C273.994 41.279 274.078 40.992 274.176 40.74H277.179C277.123 40.964 277.074 41.216 277.032 41.496C276.99 41.776 276.969 42.035 276.969 42.273C276.969 42.707 277.046 43.106 277.2 43.47C277.368 43.848 277.627 44.149 277.977 44.373C278.327 44.611 278.775 44.73 279.321 44.73C279.867 44.73 280.301 44.611 280.623 44.373C280.959 44.149 281.204 43.834 281.358 43.428C281.512 43.036 281.589 42.588 281.589 42.084C281.589 41.552 281.491 41.097 281.295 40.719C281.113 40.341 280.84 40.047 280.476 39.837C280.126 39.627 279.692 39.522 279.174 39.522H278.355V37.023H279.237C279.979 37.023 280.497 36.806 280.791 36.372C281.085 35.924 281.232 35.406 281.232 34.818C281.232 34.398 281.162 34.041 281.022 33.747C280.882 33.453 280.672 33.229 280.392 33.075C280.126 32.921 279.79 32.844 279.384 32.844C278.978 32.844 278.635 32.914 278.355 33.054C278.075 33.194 277.865 33.404 277.725 33.684C277.585 33.95 277.515 34.293 277.515 34.713C277.515 34.909 277.522 35.098 277.536 35.28C277.564 35.448 277.606 35.63 277.662 35.826H274.617C274.547 35.602 274.491 35.385 274.449 35.175C274.407 34.965 274.386 34.727 274.386 34.461C274.386 33.635 274.603 32.914 275.037 32.298C275.471 31.668 276.066 31.185 276.822 30.849C277.578 30.499 278.439 30.324 279.405 30.324C280.427 30.324 281.309 30.513 282.051 30.891C282.793 31.255 283.367 31.752 283.773 32.382C284.179 32.998 284.382 33.691 284.382 34.461C284.382 35.511 284.109 36.344 283.563 36.96C283.031 37.562 282.317 37.968 281.421 38.178V38.241C282.023 38.339 282.576 38.556 283.08 38.892C283.584 39.228 283.99 39.676 284.298 40.236C284.62 40.796 284.781 41.475 284.781 42.273C284.781 43.253 284.557 44.114 284.109 44.856C283.675 45.612 283.052 46.2 282.24 46.62C281.428 47.04 280.448 47.25 279.3 47.25Z" fill="white"/>
<path d="M11.048 47.25C9.956 47.25 9.011 47.04 8.213 46.62C7.415 46.214 6.799 45.661 6.365 44.961C5.945 44.275 5.735 43.505 5.735 42.651C5.735 42.273 5.763 41.923 5.819 41.601C5.889 41.279 5.973 40.992 6.071 40.74H9.074C9.018 40.964 8.969 41.216 8.927 41.496C8.885 41.776 8.864 42.035 8.864 42.273C8.864 42.707 8.941 43.106 9.095 43.47C9.249 43.848 9.487 44.149 9.809 44.373C10.131 44.611 10.544 44.73 11.048 44.73C11.58 44.73 12.007 44.611 12.329 44.373C12.651 44.135 12.889 43.806 13.043 43.386C13.197 42.98 13.274 42.504 13.274 41.958C13.274 41.356 13.176 40.838 12.98 40.404C12.798 39.97 12.532 39.634 12.182 39.396C11.832 39.158 11.398 39.039 10.88 39.039H10.04V36.666H10.88C11.384 36.666 11.783 36.568 12.077 36.372C12.385 36.176 12.602 35.924 12.728 35.616C12.854 35.308 12.917 34.986 12.917 34.65C12.917 34.3 12.847 33.978 12.707 33.684C12.567 33.39 12.357 33.159 12.077 32.991C11.797 32.809 11.454 32.718 11.048 32.718V30.324C12.084 30.324 12.973 30.499 13.715 30.849C14.471 31.199 15.052 31.668 15.458 32.256C15.864 32.844 16.067 33.502 16.067 34.23C16.067 35.182 15.794 35.959 15.248 36.561C14.716 37.149 14.002 37.548 13.106 37.758V37.821C13.708 37.919 14.261 38.143 14.765 38.493C15.269 38.843 15.675 39.326 15.983 39.942C16.305 40.544 16.466 41.286 16.466 42.168C16.466 43.176 16.249 44.058 15.815 44.814C15.381 45.584 14.758 46.179 13.946 46.599C13.134 47.033 12.168 47.25 11.048 47.25ZM19.6147 42C19.3067 41.328 19.0477 40.684 18.8377 40.068C18.6417 39.452 18.4947 38.822 18.3967 38.178C18.2987 37.534 18.2497 36.841 18.2497 36.099C18.2497 34.965 18.4247 33.964 18.7747 33.096C19.1387 32.228 19.6707 31.549 20.3707 31.059C21.0707 30.569 21.9247 30.324 22.9327 30.324C23.8427 30.324 24.5707 30.534 25.1167 30.954C25.6767 31.36 26.0757 31.913 26.3137 32.613H26.4397C26.6917 31.899 27.0907 31.339 27.6367 30.933C28.1967 30.527 28.9107 30.324 29.7787 30.324C30.8147 30.324 31.6827 30.569 32.3827 31.059C33.0827 31.549 33.6077 32.228 33.9577 33.096C34.3217 33.964 34.5037 34.965 34.5037 36.099C34.5037 36.841 34.4547 37.534 34.3567 38.178C34.2587 38.822 34.1117 39.452 33.9157 40.068C33.7197 40.684 33.4607 41.328 33.1387 42H30.0727C30.5207 41.076 30.8427 40.131 31.0387 39.165C31.2487 38.185 31.3537 37.184 31.3537 36.162C31.3537 35.518 31.2907 34.951 31.1647 34.461C31.0387 33.957 30.8357 33.565 30.5557 33.285C30.2897 32.991 29.9257 32.844 29.4637 32.844C28.9037 32.844 28.4977 33.061 28.2457 33.495C27.9937 33.929 27.8677 34.559 27.8677 35.385V38.346H24.8857V35.385C24.8857 34.573 24.7597 33.95 24.5077 33.516C24.2697 33.068 23.8637 32.844 23.2897 32.844C22.6737 32.844 22.2047 33.11 21.8827 33.642C21.5607 34.16 21.3997 35.014 21.3997 36.204C21.3997 36.89 21.4417 37.562 21.5257 38.22C21.6237 38.878 21.7637 39.522 21.9457 40.152C22.1417 40.768 22.3867 41.384 22.6807 42H19.6147ZM41.9011 42.21C40.7811 42.21 39.8081 41.986 38.9821 41.538C38.1701 41.09 37.5401 40.453 37.0921 39.627C36.6581 38.801 36.4411 37.821 36.4411 36.687C36.4411 35.539 36.6231 34.566 36.9871 33.768C37.3651 32.97 37.8831 32.368 38.5411 31.962C39.2131 31.542 39.9831 31.332 40.8511 31.332C41.3971 31.332 41.8731 31.395 42.2791 31.521C42.6851 31.647 43.0281 31.829 43.3081 32.067C43.6021 32.291 43.8541 32.564 44.0641 32.886H44.1691C44.1271 32.648 44.0851 32.396 44.0431 32.13C44.0151 31.864 44.0011 31.57 44.0011 31.248V29.631C44.0011 29.337 43.9591 29.085 43.8751 28.875C43.7911 28.665 43.6721 28.504 43.5181 28.392C43.3781 28.28 43.1961 28.224 42.9721 28.224C42.6641 28.224 42.4191 28.329 42.2371 28.539C42.0551 28.749 41.9641 29.036 41.9641 29.4V30.156H38.9191V29.526C38.9191 29.12 38.8001 28.826 38.5621 28.644C38.3381 28.448 38.0651 28.35 37.7431 28.35C37.5471 28.35 37.3511 28.378 37.1551 28.434C36.9591 28.476 36.7701 28.532 36.5881 28.602L35.8741 26.334C36.2101 26.152 36.5601 26.026 36.9241 25.956C37.3021 25.872 37.6661 25.83 38.0161 25.83C38.5201 25.83 39.0031 25.963 39.4651 26.229C39.9411 26.495 40.2841 26.915 40.4941 27.489H40.5571C40.7951 26.915 41.1731 26.495 41.6911 26.229C42.2091 25.963 42.8181 25.83 43.5181 25.83C44.1621 25.83 44.7571 25.97 45.3031 26.25C45.8631 26.53 46.3111 26.957 46.6471 27.531C46.9971 28.091 47.1721 28.805 47.1721 29.673V36.687C47.1721 37.821 46.9691 38.801 46.5631 39.627C46.1571 40.453 45.5621 41.09 44.7781 41.538C43.9941 41.986 43.0351 42.21 41.9011 42.21ZM41.9011 39.669C42.6851 39.669 43.2661 39.41 43.6441 38.892C44.0221 38.374 44.2111 37.744 44.2111 37.002V36.582C44.2111 36.078 44.1341 35.623 43.9801 35.217C43.8401 34.811 43.6021 34.489 43.2661 34.251C42.9301 33.999 42.4751 33.873 41.9011 33.873C41.4251 33.873 41.0191 33.999 40.6831 34.251C40.3471 34.503 40.0881 34.846 39.9061 35.28C39.7381 35.7 39.6541 36.19 39.6541 36.75C39.6541 37.282 39.7241 37.772 39.8641 38.22C40.0181 38.654 40.2561 39.004 40.5781 39.27C40.9141 39.536 41.3551 39.669 41.9011 39.669ZM54.4835 47.25C53.3915 47.25 52.4465 47.04 51.6485 46.62C50.8505 46.214 50.2345 45.661 49.8005 44.961C49.3805 44.275 49.1705 43.505 49.1705 42.651C49.1705 42.273 49.1985 41.923 49.2545 41.601C49.3245 41.279 49.4085 40.992 49.5065 40.74H52.5095C52.4535 40.964 52.4045 41.216 52.3625 41.496C52.3205 41.776 52.2995 42.035 52.2995 42.273C52.2995 42.707 52.3765 43.106 52.5305 43.47C52.6845 43.848 52.9225 44.149 53.2445 44.373C53.5665 44.611 53.9795 44.73 54.4835 44.73C55.0155 44.73 55.4425 44.611 55.7645 44.373C56.0865 44.135 56.3245 43.806 56.4785 43.386C56.6325 42.98 56.7095 42.504 56.7095 41.958C56.7095 41.356 56.6115 40.838 56.4155 40.404C56.2335 39.97 55.9675 39.634 55.6175 39.396C55.2675 39.158 54.8335 39.039 54.3155 39.039H53.4755V36.666H54.3155C54.8195 36.666 55.2185 36.568 55.5125 36.372C55.8205 36.176 56.0375 35.924 56.1635 35.616C56.2895 35.308 56.3525 34.986 56.3525 34.65C56.3525 34.3 56.2825 33.978 56.1425 33.684C56.0025 33.39 55.7925 33.159 55.5125 32.991C55.2325 32.809 54.8895 32.718 54.4835 32.718V30.324C55.5195 30.324 56.4085 30.499 57.1505 30.849C57.9065 31.199 58.4875 31.668 58.8935 32.256C59.2995 32.844 59.5025 33.502 59.5025 34.23C59.5025 35.182 59.2295 35.959 58.6835 36.561C58.1515 37.149 57.4375 37.548 56.5415 37.758V37.821C57.1435 37.919 57.6965 38.143 58.2005 38.493C58.7045 38.843 59.1105 39.326 59.4185 39.942C59.7405 40.544 59.9015 41.286 59.9015 42.168C59.9015 43.176 59.6845 44.058 59.2505 44.814C58.8165 45.584 58.1935 46.179 57.3815 46.599C56.5695 47.033 55.6035 47.25 54.4835 47.25ZM63.0502 42C62.7422 41.328 62.4832 40.684 62.2732 40.068C62.0772 39.452 61.9302 38.822 61.8322 38.178C61.7342 37.534 61.6852 36.841 61.6852 36.099C61.6852 34.965 61.8602 33.964 62.2102 33.096C62.5742 32.228 63.1062 31.549 63.8062 31.059C64.5062 30.569 65.3602 30.324 66.3682 30.324C67.2782 30.324 68.0062 30.534 68.5522 30.954C69.1122 31.36 69.5112 31.913 69.7492 32.613H69.8752C70.1272 31.899 70.5262 31.339 71.0722 30.933C71.6322 30.527 72.3462 30.324 73.2142 30.324C74.2502 30.324 75.1182 30.569 75.8182 31.059C76.5182 31.549 77.0432 32.228 77.3932 33.096C77.7572 33.964 77.9392 34.965 77.9392 36.099C77.9392 36.841 77.8902 37.534 77.7922 38.178C77.6942 38.822 77.5472 39.452 77.3512 40.068C77.1552 40.684 76.8962 41.328 76.5742 42H73.5082C73.9562 41.076 74.2782 40.131 74.4742 39.165C74.6842 38.185 74.7892 37.184 74.7892 36.162C74.7892 35.518 74.7262 34.951 74.6002 34.461C74.4742 33.957 74.2712 33.565 73.9912 33.285C73.7252 32.991 73.3612 32.844 72.8992 32.844C72.3392 32.844 71.9332 33.061 71.6812 33.495C71.4292 33.929 71.3032 34.559 71.3032 35.385V38.346H68.3212V35.385C68.3212 34.573 68.1952 33.95 67.9432 33.516C67.7052 33.068 67.2992 32.844 66.7252 32.844C66.1092 32.844 65.6402 33.11 65.3182 33.642C64.9962 34.16 64.8352 35.014 64.8352 36.204C64.8352 36.89 64.8772 37.562 64.9612 38.22C65.0592 38.878 65.1992 39.522 65.3812 40.152C65.5772 40.768 65.8222 41.384 66.1162 42H63.0502ZM84.7795 47.25C83.9255 47.25 83.1555 47.131 82.4695 46.893C81.7975 46.655 81.2235 46.326 80.7475 45.906C80.2855 45.486 79.9285 44.996 79.6765 44.436C79.4385 43.89 79.3195 43.295 79.3195 42.651C79.3195 42.273 79.3475 41.923 79.4035 41.601C79.4735 41.279 79.5575 40.992 79.6555 40.74H82.6585C82.6025 40.964 82.5535 41.216 82.5115 41.496C82.4695 41.776 82.4485 42.035 82.4485 42.273C82.4485 42.707 82.5255 43.106 82.6795 43.47C82.8475 43.848 83.1065 44.149 83.4565 44.373C83.8065 44.611 84.2545 44.73 84.8005 44.73C85.3465 44.73 85.7805 44.611 86.1025 44.373C86.4385 44.149 86.6835 43.834 86.8375 43.428C86.9915 43.036 87.0685 42.588 87.0685 42.084C87.0685 41.552 86.9705 41.097 86.7745 40.719C86.5925 40.341 86.3195 40.047 85.9555 39.837C85.6055 39.627 85.1715 39.522 84.6535 39.522H83.8345V37.023H84.7165C85.4585 37.023 85.9765 36.806 86.2705 36.372C86.5645 35.924 86.7115 35.406 86.7115 34.818C86.7115 34.398 86.6415 34.041 86.5015 33.747C86.3615 33.453 86.1515 33.229 85.8715 33.075C85.6055 32.921 85.2695 32.844 84.8635 32.844C84.4575 32.844 84.1145 32.914 83.8345 33.054C83.5545 33.194 83.3445 33.404 83.2045 33.684C83.0645 33.95 82.9945 34.293 82.9945 34.713C82.9945 34.909 83.0015 35.098 83.0155 35.28C83.0435 35.448 83.0855 35.63 83.1415 35.826H80.0965C80.0265 35.602 79.9705 35.385 79.9285 35.175C79.8865 34.965 79.8655 34.727 79.8655 34.461C79.8655 33.635 80.0825 32.914 80.5165 32.298C80.9505 31.668 81.5455 31.185 82.3015 30.849C83.0575 30.499 83.9185 30.324 84.8845 30.324C85.9065 30.324 86.7885 30.513 87.5305 30.891C88.2725 31.255 88.8465 31.752 89.2525 32.382C89.6585 32.998 89.8615 33.691 89.8615 34.461C89.8615 35.511 89.5885 36.344 89.0425 36.96C88.5105 37.562 87.7965 37.968 86.9005 38.178V38.241C87.5025 38.339 88.0555 38.556 88.5595 38.892C89.0635 39.228 89.4695 39.676 89.7775 40.236C90.0995 40.796 90.2605 41.475 90.2605 42.273C90.2605 43.253 90.0365 44.114 89.5885 44.856C89.1545 45.612 88.5315 46.2 87.7195 46.62C86.9075 47.04 85.9275 47.25 84.7795 47.25ZM96.7296 42.21C95.7216 42.21 94.8256 42.042 94.0416 41.706C93.2576 41.356 92.6416 40.852 92.1936 40.194C91.7456 39.536 91.5216 38.731 91.5216 37.779C91.5216 37.387 91.5496 37.051 91.6056 36.771C91.6756 36.477 91.7596 36.197 91.8576 35.931H94.8606C94.8046 36.183 94.7556 36.449 94.7136 36.729C94.6716 36.995 94.6506 37.268 94.6506 37.548C94.6506 37.926 94.7276 38.283 94.8816 38.619C95.0496 38.941 95.2876 39.2 95.5956 39.396C95.9036 39.592 96.2816 39.69 96.7296 39.69C97.1636 39.69 97.5276 39.592 97.8216 39.396C98.1296 39.2 98.3606 38.948 98.5146 38.64C98.6826 38.318 98.7666 37.968 98.7666 37.59C98.7666 36.946 98.5986 36.421 98.2626 36.015C97.9266 35.595 97.5416 35.189 97.1076 34.797C96.7716 34.475 96.4356 34.132 96.0996 33.768C95.7636 33.39 95.4836 32.942 95.2596 32.424C95.0356 31.906 94.9236 31.276 94.9236 30.534H98.0526C98.0526 31.108 98.2276 31.612 98.5776 32.046C98.9276 32.48 99.3266 32.914 99.7746 33.348C100.125 33.684 100.468 34.048 100.804 34.44C101.14 34.818 101.413 35.259 101.623 35.763C101.847 36.267 101.959 36.862 101.959 37.548C101.959 38.472 101.742 39.284 101.308 39.984C100.874 40.684 100.265 41.23 99.4806 41.622C98.7106 42.014 97.7936 42.21 96.7296 42.21ZM109.435 42.21C107.741 42.21 106.439 41.706 105.529 40.698C104.619 39.69 104.164 38.234 104.164 36.33V30.261C104.164 29.225 104.36 28.399 104.752 27.783C105.144 27.167 105.662 26.726 106.306 26.46C106.964 26.18 107.664 26.04 108.406 26.04H113.782V28.455H108.742C108.308 28.455 107.958 28.567 107.692 28.791C107.44 29.015 107.314 29.386 107.314 29.904V30.324C107.314 30.562 107.293 30.856 107.251 31.206C107.223 31.556 107.195 31.85 107.167 32.088H107.251C107.475 31.766 107.727 31.493 108.007 31.269C108.301 31.031 108.651 30.849 109.057 30.723C109.463 30.597 109.939 30.534 110.485 30.534C111.801 30.534 112.865 31.017 113.677 31.983C114.489 32.935 114.895 34.37 114.895 36.288C114.895 37.562 114.678 38.64 114.244 39.522C113.81 40.404 113.18 41.076 112.354 41.538C111.542 41.986 110.569 42.21 109.435 42.21ZM109.435 39.69C110.261 39.69 110.842 39.389 111.178 38.787C111.528 38.171 111.703 37.359 111.703 36.351C111.703 35.273 111.507 34.447 111.115 33.873C110.737 33.285 110.198 32.991 109.498 32.991C108.896 32.991 108.42 33.124 108.07 33.39C107.72 33.642 107.475 34.006 107.335 34.482C107.195 34.944 107.125 35.497 107.125 36.141V36.603C107.125 37.569 107.314 38.325 107.692 38.871C108.07 39.417 108.651 39.69 109.435 39.69ZM117.987 42C117.721 41.37 117.497 40.761 117.315 40.173C117.147 39.571 117.014 38.948 116.916 38.304C116.832 37.66 116.79 36.967 116.79 36.225C116.79 35.049 116.986 34.02 117.378 33.138C117.77 32.242 118.358 31.549 119.142 31.059C119.94 30.569 120.934 30.324 122.124 30.324C123.314 30.324 124.301 30.569 125.085 31.059C125.883 31.549 126.478 32.242 126.87 33.138C127.276 34.02 127.479 35.049 127.479 36.225C127.479 36.967 127.43 37.66 127.332 38.304C127.248 38.948 127.115 39.571 126.933 40.173C126.765 40.761 126.541 41.37 126.261 42H123.258C123.622 41.076 123.888 40.138 124.056 39.186C124.238 38.22 124.329 37.254 124.329 36.288C124.329 35.518 124.238 34.881 124.056 34.377C123.888 33.859 123.636 33.474 123.3 33.222C122.978 32.97 122.586 32.844 122.124 32.844C121.662 32.844 121.263 32.97 120.927 33.222C120.605 33.46 120.36 33.838 120.192 34.356C120.024 34.86 119.94 35.511 119.94 36.309C119.94 36.967 119.975 37.618 120.045 38.262C120.129 38.892 120.248 39.522 120.402 40.152C120.57 40.768 120.773 41.384 121.011 42H117.987ZM135.136 42.21C133.344 42.21 131.986 41.706 131.062 40.698C130.138 39.69 129.676 38.255 129.676 36.393V26.04H132.805V36.603C132.805 37.555 132.994 38.311 133.372 38.871C133.764 39.417 134.345 39.69 135.115 39.69C135.633 39.69 136.06 39.571 136.396 39.333C136.732 39.081 136.984 38.752 137.152 38.346C137.32 37.926 137.404 37.471 137.404 36.981C137.404 36.407 137.334 35.931 137.194 35.553C137.068 35.175 136.907 34.825 136.711 34.503C136.403 33.999 136.109 33.439 135.829 32.823C135.549 32.193 135.409 31.43 135.409 30.534H138.538C138.552 31.178 138.671 31.738 138.895 32.214C139.133 32.676 139.42 33.173 139.756 33.705C139.994 34.083 140.19 34.531 140.344 35.049C140.512 35.553 140.596 36.155 140.596 36.855C140.596 37.933 140.372 38.878 139.924 39.69C139.49 40.488 138.86 41.111 138.034 41.559C137.222 41.993 136.256 42.21 135.136 42.21ZM153.128 47.25C152.316 47.25 151.581 47.124 150.923 46.872C150.265 46.634 149.705 46.284 149.243 45.822C148.795 45.374 148.445 44.835 148.193 44.205C147.955 43.589 147.836 42.903 147.836 42.147C147.836 41.741 147.871 41.363 147.941 41.013C148.025 40.649 148.137 40.306 148.277 39.984H151.217C151.147 40.264 151.084 40.579 151.028 40.929C150.986 41.279 150.965 41.608 150.965 41.916C150.965 42.42 151.042 42.882 151.196 43.302C151.35 43.736 151.581 44.079 151.889 44.331C152.211 44.597 152.624 44.73 153.128 44.73C153.674 44.73 154.101 44.604 154.409 44.352C154.731 44.1 154.955 43.743 155.081 43.281C155.221 42.833 155.291 42.301 155.291 41.685V36.015C155.291 35.063 155.13 34.3 154.808 33.726C154.486 33.138 153.954 32.844 153.212 32.844C152.876 32.844 152.575 32.928 152.309 33.096C152.057 33.25 151.854 33.481 151.7 33.789C151.546 34.097 151.469 34.475 151.469 34.923C151.469 35.189 151.483 35.455 151.511 35.721C151.539 35.987 151.595 36.281 151.679 36.603H148.676C148.578 36.323 148.494 36.036 148.424 35.742C148.368 35.448 148.34 35.077 148.34 34.629C148.34 33.719 148.522 32.942 148.886 32.298C149.264 31.654 149.747 31.164 150.335 30.828C150.923 30.492 151.532 30.324 152.162 30.324C152.708 30.324 153.177 30.401 153.569 30.555C153.975 30.695 154.318 30.891 154.598 31.143C154.878 31.395 155.123 31.682 155.333 32.004H155.438C155.396 31.766 155.354 31.423 155.312 30.975C155.284 30.513 155.27 30.093 155.27 29.715V26.04H158.42V41.748C158.42 42.896 158.21 43.883 157.79 44.709C157.384 45.535 156.789 46.165 156.005 46.599C155.221 47.033 154.262 47.25 153.128 47.25Z" fill="white"/>
<path d="M7.56 181.08C6.87733 181.08 6.36 180.888 6.008 180.504C5.656 180.12 5.48 179.573 5.48 178.864V174.92H6.672V178.944C6.672 179.307 6.744 179.595 6.888 179.808C7.03733 180.016 7.25867 180.12 7.552 180.12C7.74933 180.12 7.912 180.075 8.04 179.984C8.168 179.888 8.264 179.763 8.328 179.608C8.392 179.448 8.424 179.275 8.424 179.088C8.424 178.869 8.39733 178.688 8.344 178.544C8.296 178.4 8.23467 178.267 8.16 178.144C8.04267 177.952 7.93067 177.739 7.824 177.504C7.71733 177.264 7.664 176.973 7.664 176.632H8.856C8.86133 176.877 8.90667 177.091 8.992 177.272C9.08267 177.448 9.192 177.637 9.32 177.84C9.41067 177.984 9.48533 178.155 9.544 178.352C9.608 178.544 9.64 178.773 9.64 179.04C9.64 179.451 9.55467 179.811 9.384 180.12C9.21867 180.424 8.97867 180.661 8.664 180.832C8.35467 180.997 7.98667 181.08 7.56 181.08ZM12.304 181.08C11.92 181.08 11.5787 181.016 11.28 180.888C10.9813 180.755 10.7467 180.563 10.576 180.312C10.4053 180.061 10.32 179.755 10.32 179.392C10.32 179.243 10.3307 179.115 10.352 179.008C10.3787 178.896 10.4107 178.789 10.448 178.688H11.592C11.5707 178.784 11.552 178.885 11.536 178.992C11.52 179.093 11.512 179.197 11.512 179.304C11.512 179.448 11.5413 179.584 11.6 179.712C11.664 179.835 11.7547 179.933 11.872 180.008C11.9893 180.083 12.1333 180.12 12.304 180.12C12.4693 180.12 12.608 180.083 12.72 180.008C12.8373 179.933 12.9253 179.837 12.984 179.72C13.048 179.597 13.08 179.464 13.08 179.32C13.08 179.075 13.016 178.875 12.888 178.72C12.76 178.56 12.6133 178.405 12.448 178.256C12.32 178.133 12.192 178.003 12.064 177.864C11.936 177.72 11.8293 177.549 11.744 177.352C11.6587 177.155 11.616 176.915 11.616 176.632H12.808C12.808 176.851 12.8747 177.043 13.008 177.208C13.1413 177.373 13.2933 177.539 13.464 177.704C13.5973 177.832 13.728 177.971 13.856 178.12C13.984 178.264 14.088 178.432 14.168 178.624C14.2533 178.816 14.296 179.043 14.296 179.304C14.296 179.656 14.2133 179.965 14.048 180.232C13.8827 180.499 13.6507 180.707 13.352 180.856C13.0587 181.005 12.7093 181.08 12.304 181.08ZM17.0963 181.08C16.6696 181.08 16.2989 180.995 15.9843 180.824C15.6749 180.653 15.4349 180.405 15.2643 180.08C15.0989 179.749 15.0163 179.355 15.0163 178.896C15.0163 178.197 15.1709 177.669 15.4803 177.312C15.7896 176.955 16.1949 176.776 16.6963 176.776C16.9043 176.776 17.0856 176.8 17.2403 176.848C17.3949 176.896 17.5256 176.965 17.6323 177.056C17.7443 177.141 17.8403 177.245 17.9203 177.368H17.9603C17.9443 177.277 17.9283 177.181 17.9123 177.08C17.9016 176.979 17.8963 176.867 17.8963 176.744V176.432C17.8963 176.293 17.8696 176.171 17.8163 176.064C17.7683 175.952 17.6883 175.864 17.5763 175.8C17.4696 175.731 17.3309 175.696 17.1603 175.696C17.0163 175.696 16.8936 175.72 16.7923 175.768C16.6909 175.816 16.6109 175.883 16.5523 175.968C16.4989 176.053 16.4723 176.149 16.4723 176.256C16.4723 176.283 16.4723 176.309 16.4723 176.336C16.4776 176.363 16.4829 176.389 16.4883 176.416H15.3203C15.3043 176.363 15.2936 176.312 15.2883 176.264C15.2829 176.211 15.2803 176.163 15.2803 176.12C15.2803 175.853 15.3629 175.624 15.5283 175.432C15.6989 175.24 15.9256 175.093 16.2083 174.992C16.4909 174.891 16.8083 174.84 17.1603 174.84C17.5603 174.84 17.9043 174.915 18.1923 175.064C18.4856 175.208 18.7096 175.411 18.8643 175.672C19.0189 175.933 19.0963 176.235 19.0963 176.576V178.896C19.0963 179.589 18.9229 180.128 18.5763 180.512C18.2349 180.891 17.7416 181.08 17.0963 181.08ZM17.0963 180.12C17.3949 180.12 17.6163 180.019 17.7603 179.816C17.9043 179.608 17.9763 179.341 17.9763 179.016V178.856C17.9763 178.509 17.9123 178.229 17.7843 178.016C17.6563 177.803 17.4189 177.696 17.0723 177.696C16.8056 177.696 16.5976 177.805 16.4483 178.024C16.3043 178.243 16.2323 178.541 16.2323 178.92C16.2323 179.267 16.2963 179.555 16.4243 179.784C16.5576 180.008 16.7816 180.12 17.0963 180.12ZM21.8821 181.08C21.4981 181.08 21.1568 181.016 20.8581 180.888C20.5595 180.755 20.3248 180.563 20.1541 180.312C19.9835 180.061 19.8981 179.755 19.8981 179.392C19.8981 179.243 19.9088 179.115 19.9301 179.008C19.9568 178.896 19.9888 178.789 20.0261 178.688H21.1701C21.1488 178.784 21.1301 178.885 21.1141 178.992C21.0981 179.093 21.0901 179.197 21.0901 179.304C21.0901 179.448 21.1195 179.584 21.1781 179.712C21.2421 179.835 21.3328 179.933 21.4501 180.008C21.5675 180.083 21.7115 180.12 21.8821 180.12C22.0475 180.12 22.1861 180.083 22.2981 180.008C22.4155 179.933 22.5035 179.837 22.5621 179.72C22.6261 179.597 22.6581 179.464 22.6581 179.32C22.6581 179.075 22.5941 178.875 22.4661 178.72C22.3381 178.56 22.1915 178.405 22.0261 178.256C21.8981 178.133 21.7701 178.003 21.6421 177.864C21.5141 177.72 21.4075 177.549 21.3221 177.352C21.2368 177.155 21.1941 176.915 21.1941 176.632H22.3861C22.3861 176.851 22.4528 177.043 22.5861 177.208C22.7195 177.373 22.8715 177.539 23.0421 177.704C23.1755 177.832 23.3061 177.971 23.4341 178.12C23.5621 178.264 23.6661 178.432 23.7461 178.624C23.8315 178.816 23.8741 179.043 23.8741 179.304C23.8741 179.656 23.7915 179.965 23.6261 180.232C23.4608 180.499 23.2288 180.707 22.9301 180.856C22.6368 181.005 22.2875 181.08 21.8821 181.08ZM26.7944 181.08C26.1117 181.08 25.5944 180.888 25.2424 180.504C24.8904 180.12 24.7144 179.573 24.7144 178.864V174.92H25.9064V178.944C25.9064 179.307 25.9784 179.595 26.1224 179.808C26.2717 180.016 26.493 180.12 26.7864 180.12C26.9837 180.12 27.1464 180.075 27.2744 179.984C27.4024 179.888 27.4984 179.763 27.5624 179.608C27.6264 179.448 27.6584 179.275 27.6584 179.088C27.6584 178.869 27.6317 178.688 27.5784 178.544C27.5304 178.4 27.469 178.267 27.3944 178.144C27.277 177.952 27.165 177.739 27.0584 177.504C26.9517 177.264 26.8984 176.973 26.8984 176.632H28.0904C28.0957 176.877 28.141 177.091 28.2264 177.272C28.317 177.448 28.4264 177.637 28.5544 177.84C28.645 177.984 28.7197 178.155 28.7784 178.352C28.8424 178.544 28.8744 178.773 28.8744 179.04C28.8744 179.451 28.789 179.811 28.6184 180.12C28.453 180.424 28.213 180.661 27.8984 180.832C27.589 180.997 27.221 181.08 26.7944 181.08ZM30.0504 181C29.949 180.76 29.8637 180.528 29.7944 180.304C29.7304 180.075 29.6797 179.837 29.6424 179.592C29.6104 179.347 29.5944 179.083 29.5944 178.8C29.5944 178.352 29.669 177.96 29.8184 177.624C29.9677 177.283 30.1917 177.019 30.4904 176.832C30.7944 176.645 31.173 176.552 31.6264 176.552C32.0797 176.552 32.4557 176.645 32.7544 176.832C33.0584 177.019 33.285 177.283 33.4344 177.624C33.589 177.96 33.6664 178.352 33.6664 178.8C33.6664 179.083 33.6477 179.347 33.6104 179.592C33.5784 179.837 33.5277 180.075 33.4584 180.304C33.3944 180.528 33.309 180.76 33.2024 181H32.0584C32.197 180.648 32.2984 180.291 32.3624 179.928C32.4317 179.56 32.4664 179.192 32.4664 178.824C32.4664 178.531 32.4317 178.288 32.3624 178.096C32.2984 177.899 32.2024 177.752 32.0744 177.656C31.9517 177.56 31.8024 177.512 31.6264 177.512C31.4504 177.512 31.2984 177.56 31.1704 177.656C31.0477 177.747 30.9544 177.891 30.8904 178.088C30.8264 178.28 30.7944 178.528 30.7944 178.832C30.7944 179.083 30.8077 179.331 30.8344 179.576C30.8664 179.816 30.9117 180.056 30.9704 180.296C31.0344 180.531 31.1117 180.765 31.2024 181H30.0504ZM38.4056 181.08C38.0216 181.08 37.6802 181.016 37.3816 180.888C37.0829 180.755 36.8482 180.563 36.6776 180.312C36.5069 180.061 36.4216 179.755 36.4216 179.392C36.4216 179.243 36.4322 179.115 36.4536 179.008C36.4802 178.896 36.5122 178.789 36.5496 178.688H37.6936C37.6722 178.784 37.6536 178.885 37.6376 178.992C37.6216 179.093 37.6136 179.197 37.6136 179.304C37.6136 179.448 37.6429 179.584 37.7016 179.712C37.7656 179.835 37.8562 179.933 37.9736 180.008C38.0909 180.083 38.2349 180.12 38.4056 180.12C38.5709 180.12 38.7096 180.083 38.8216 180.008C38.9389 179.933 39.0269 179.837 39.0856 179.72C39.1496 179.597 39.1816 179.464 39.1816 179.32C39.1816 179.075 39.1176 178.875 38.9896 178.72C38.8616 178.56 38.7149 178.405 38.5496 178.256C38.4216 178.133 38.2936 178.003 38.1656 177.864C38.0376 177.72 37.9309 177.549 37.8456 177.352C37.7602 177.155 37.7176 176.915 37.7176 176.632H38.9096C38.9096 176.851 38.9762 177.043 39.1096 177.208C39.2429 177.373 39.3949 177.539 39.5656 177.704C39.6989 177.832 39.8296 177.971 39.9576 178.12C40.0856 178.264 40.1896 178.432 40.2696 178.624C40.3549 178.816 40.3976 179.043 40.3976 179.304C40.3976 179.656 40.3149 179.965 40.1496 180.232C39.9842 180.499 39.7522 180.707 39.4536 180.856C39.1602 181.005 38.8109 181.08 38.4056 181.08ZM41.6298 181C41.5125 180.744 41.4165 180.496 41.3418 180.256C41.2671 180.016 41.2111 179.773 41.1738 179.528C41.1365 179.283 41.1178 179.024 41.1178 178.752V178.44C41.1178 177.784 41.1978 177.229 41.3578 176.776C41.5231 176.317 41.7898 175.952 42.1578 175.68C42.5258 175.408 43.0138 175.216 43.6218 175.104C43.8885 175.056 44.1765 175.011 44.4858 174.968C44.7951 174.92 45.1178 174.877 45.4538 174.84L45.5818 175.816C45.4111 175.837 45.2378 175.861 45.0618 175.888C44.8911 175.909 44.7231 175.933 44.5578 175.96C44.3978 175.981 44.2458 176.003 44.1018 176.024C43.9578 176.045 43.8298 176.064 43.7178 176.08C43.4991 176.112 43.2805 176.163 43.0618 176.232C42.8431 176.301 42.6458 176.4 42.4698 176.528C42.2991 176.656 42.1711 176.829 42.0858 177.048H42.1178C42.2031 176.941 42.2938 176.859 42.3898 176.8C42.4858 176.741 42.5818 176.701 42.6778 176.68C42.7791 176.659 42.8805 176.648 42.9818 176.648C43.2591 176.648 43.4991 176.725 43.7018 176.88C43.9045 177.035 44.0511 177.245 44.1418 177.512H44.1898C44.2858 177.24 44.4378 177.029 44.6458 176.88C44.8538 176.725 45.1205 176.648 45.4458 176.648C45.8298 176.648 46.1525 176.741 46.4138 176.928C46.6805 177.115 46.8805 177.371 47.0138 177.696C47.1525 178.016 47.2218 178.384 47.2218 178.8C47.2218 179.083 47.2031 179.344 47.1658 179.584C47.1285 179.819 47.0698 180.051 46.9898 180.28C46.9151 180.504 46.8191 180.744 46.7018 181H45.5178C45.6885 180.648 45.8111 180.296 45.8858 179.944C45.9658 179.587 46.0058 179.213 46.0058 178.824C46.0058 178.589 45.9818 178.381 45.9338 178.2C45.8911 178.013 45.8191 177.869 45.7178 177.768C45.6165 177.661 45.4831 177.608 45.3178 177.608C45.1205 177.608 44.9738 177.696 44.8778 177.872C44.7818 178.043 44.7338 178.28 44.7338 178.584V179.592H43.5898V178.584C43.5898 178.285 43.5445 178.048 43.4538 177.872C43.3631 177.696 43.2191 177.608 43.0218 177.608C42.7978 177.608 42.6245 177.709 42.5018 177.912C42.3791 178.109 42.3178 178.416 42.3178 178.832C42.3178 179.093 42.3338 179.347 42.3658 179.592C42.4031 179.832 42.4565 180.069 42.5258 180.304C42.6005 180.533 42.6938 180.765 42.8058 181H41.6298ZM49.8821 181.08C49.4981 181.08 49.1568 181.016 48.8581 180.888C48.5595 180.755 48.3248 180.563 48.1541 180.312C47.9835 180.061 47.8981 179.755 47.8981 179.392C47.8981 179.243 47.9088 179.115 47.9301 179.008C47.9568 178.896 47.9888 178.789 48.0261 178.688H49.1701C49.1488 178.784 49.1301 178.885 49.1141 178.992C49.0981 179.093 49.0901 179.197 49.0901 179.304C49.0901 179.448 49.1195 179.584 49.1781 179.712C49.2421 179.835 49.3328 179.933 49.4501 180.008C49.5675 180.083 49.7115 180.12 49.8821 180.12C50.0475 180.12 50.1861 180.083 50.2981 180.008C50.4155 179.933 50.5035 179.837 50.5621 179.72C50.6261 179.597 50.6581 179.464 50.6581 179.32C50.6581 179.075 50.5941 178.875 50.4661 178.72C50.3381 178.56 50.1915 178.405 50.0261 178.256C49.8981 178.133 49.7701 178.003 49.6421 177.864C49.5141 177.72 49.4075 177.549 49.3221 177.352C49.2368 177.155 49.1941 176.915 49.1941 176.632H50.3861C50.3861 176.851 50.4528 177.043 50.5861 177.208C50.7195 177.373 50.8715 177.539 51.0421 177.704C51.1755 177.832 51.3061 177.971 51.4341 178.12C51.5621 178.264 51.6661 178.432 51.7461 178.624C51.8315 178.816 51.8741 179.043 51.8741 179.304C51.8741 179.656 51.7915 179.965 51.6261 180.232C51.4608 180.499 51.2288 180.707 50.9301 180.856C50.6368 181.005 50.2875 181.08 49.8821 181.08ZM54.4162 183C54.1122 183 53.8295 182.949 53.5682 182.848C53.3122 182.752 53.0909 182.608 52.9042 182.416C52.7175 182.229 52.5709 182 52.4642 181.728C52.3629 181.456 52.3122 181.149 52.3122 180.808C52.3122 180.376 52.3895 180.013 52.5442 179.72C52.7042 179.421 52.9229 179.184 53.2002 179.008C53.4775 178.827 53.8002 178.707 54.1682 178.648C54.4615 178.6 54.6695 178.52 54.7922 178.408C54.9149 178.291 54.9762 178.136 54.9762 177.944C54.9762 177.8 54.9282 177.677 54.8322 177.576C54.7362 177.469 54.5975 177.416 54.4162 177.416C54.2402 177.416 54.1042 177.467 54.0082 177.568C53.9175 177.664 53.8722 177.789 53.8722 177.944C53.8722 177.981 53.8749 178.021 53.8802 178.064C53.8855 178.101 53.8909 178.141 53.8962 178.184H52.7922C52.7709 178.115 52.7549 178.048 52.7442 177.984C52.7389 177.92 52.7362 177.859 52.7362 177.8C52.7362 177.549 52.8055 177.331 52.9442 177.144C53.0829 176.957 53.2775 176.813 53.5282 176.712C53.7842 176.605 54.0802 176.552 54.4162 176.552C54.7682 176.552 55.0695 176.611 55.3202 176.728C55.5762 176.845 55.7709 177 55.9042 177.192C56.0429 177.384 56.1122 177.597 56.1122 177.832C56.1122 178.061 56.0535 178.269 55.9362 178.456C55.8242 178.643 55.6269 178.787 55.3442 178.888V178.912C55.6162 179.013 55.8402 179.157 56.0162 179.344C56.1922 179.525 56.3229 179.741 56.4082 179.992C56.4989 180.237 56.5442 180.509 56.5442 180.808C56.5442 181.149 56.4935 181.456 56.3922 181.728C56.2962 182 56.1549 182.229 55.9682 182.416C55.7869 182.608 55.5655 182.752 55.3042 182.848C55.0429 182.949 54.7469 183 54.4162 183ZM54.4322 182.04C54.6455 182.04 54.8162 181.987 54.9442 181.88C55.0775 181.779 55.1735 181.635 55.2322 181.448C55.2962 181.267 55.3282 181.053 55.3282 180.808C55.3282 180.563 55.2962 180.349 55.2322 180.168C55.1735 179.987 55.0775 179.845 54.9442 179.744C54.8109 179.643 54.6375 179.592 54.4242 179.592C54.1095 179.592 53.8802 179.704 53.7362 179.928C53.5975 180.147 53.5282 180.44 53.5282 180.808C53.5282 181.053 53.5575 181.267 53.6162 181.448C53.6802 181.635 53.7789 181.779 53.9122 181.88C54.0455 181.987 54.2189 182.04 54.4322 182.04ZM59.3453 183C59.02 183 58.7266 182.955 58.4653 182.864C58.2093 182.773 57.9906 182.648 57.8093 182.488C57.6333 182.328 57.4973 182.141 57.4013 181.928C57.3106 181.72 57.2653 181.493 57.2653 181.248C57.2653 181.104 57.276 180.971 57.2973 180.848C57.324 180.725 57.356 180.616 57.3933 180.52H58.5373C58.516 180.605 58.4973 180.701 58.4813 180.808C58.4653 180.915 58.4573 181.013 58.4573 181.104C58.4573 181.269 58.4866 181.421 58.5453 181.56C58.6093 181.704 58.708 181.819 58.8413 181.904C58.9746 181.995 59.1453 182.04 59.3533 182.04C59.5613 182.04 59.7266 181.995 59.8493 181.904C59.9773 181.819 60.0706 181.699 60.1293 181.544C60.188 181.395 60.2173 181.224 60.2173 181.032C60.2173 180.829 60.18 180.656 60.1053 180.512C60.036 180.368 59.932 180.256 59.7933 180.176C59.66 180.096 59.4946 180.056 59.2973 180.056H58.9853V179.104H59.3213C59.604 179.104 59.8013 179.021 59.9133 178.856C60.0253 178.685 60.0813 178.488 60.0813 178.264C60.0813 178.104 60.0546 177.968 60.0013 177.856C59.948 177.744 59.868 177.659 59.7613 177.6C59.66 177.541 59.532 177.512 59.3773 177.512C59.2226 177.512 59.092 177.539 58.9853 177.592C58.8786 177.645 58.7986 177.725 58.7453 177.832C58.692 177.933 58.6653 178.064 58.6653 178.224C58.6653 178.299 58.668 178.371 58.6733 178.44C58.684 178.504 58.7 178.573 58.7213 178.648H57.5613C57.5346 178.563 57.5133 178.48 57.4973 178.4C57.4813 178.32 57.4733 178.229 57.4733 178.128C57.4733 177.813 57.556 177.539 57.7213 177.304C57.8866 177.064 58.1133 176.88 58.4013 176.752C58.6893 176.619 59.0173 176.552 59.3853 176.552C59.7746 176.552 60.1106 176.624 60.3933 176.768C60.676 176.907 60.8946 177.096 61.0493 177.336C61.204 177.571 61.2813 177.835 61.2813 178.128C61.2813 178.528 61.1773 178.845 60.9693 179.08C60.7666 179.309 60.4946 179.464 60.1533 179.544V179.568C60.3826 179.605 60.5933 179.688 60.7853 179.816C60.9773 179.944 61.132 180.115 61.2493 180.328C61.372 180.541 61.4333 180.8 61.4333 181.104C61.4333 181.477 61.348 181.805 61.1773 182.088C61.012 182.376 60.7746 182.6 60.4653 182.76C60.156 182.92 59.7826 183 59.3453 183ZM64.086 183C63.7767 183 63.4967 182.952 63.246 182.856C62.9953 182.765 62.782 182.632 62.606 182.456C62.4353 182.285 62.302 182.08 62.206 181.84C62.1153 181.605 62.07 181.344 62.07 181.056C62.07 180.901 62.0833 180.757 62.11 180.624C62.142 180.485 62.1847 180.355 62.238 180.232H63.358C63.3313 180.339 63.3073 180.459 63.286 180.592C63.27 180.725 63.262 180.851 63.262 180.968C63.262 181.16 63.2913 181.336 63.35 181.496C63.4087 181.661 63.4967 181.792 63.614 181.888C63.7367 181.989 63.894 182.04 64.086 182.04C64.294 182.04 64.4567 181.992 64.574 181.896C64.6967 181.8 64.782 181.664 64.83 181.488C64.8833 181.317 64.91 181.115 64.91 180.88V178.448C64.91 178.149 64.8513 177.92 64.734 177.76C64.6167 177.595 64.4353 177.512 64.19 177.512C64.0407 177.512 63.91 177.544 63.798 177.608C63.686 177.667 63.6007 177.755 63.542 177.872C63.4833 177.989 63.454 178.133 63.454 178.304C63.454 178.405 63.4593 178.507 63.47 178.608C63.4807 178.709 63.502 178.821 63.534 178.944H62.39C62.3527 178.837 62.3207 178.731 62.294 178.624C62.2727 178.517 62.262 178.389 62.262 178.24C62.262 177.877 62.3447 177.571 62.51 177.32C62.6807 177.069 62.91 176.88 63.198 176.752C63.4913 176.619 63.8167 176.552 64.174 176.552C64.5687 176.552 64.91 176.629 65.198 176.784C65.486 176.933 65.7073 177.149 65.862 177.432C66.022 177.715 66.102 178.053 66.102 178.448V180.904C66.102 181.341 66.022 181.717 65.862 182.032C65.7073 182.347 65.4807 182.587 65.182 182.752C64.8833 182.917 64.518 183 64.086 183ZM72.0261 183C71.9088 182.803 71.7621 182.635 71.5861 182.496C71.4155 182.363 71.2288 182.253 71.0261 182.168C70.8288 182.083 70.6288 182.021 70.4261 181.984C70.2235 181.947 70.0341 181.928 69.8581 181.928C69.5328 181.928 69.2448 181.971 68.9941 182.056C68.7435 182.141 68.5195 182.24 68.3221 182.352L67.9221 181.592C68.0075 181.539 68.1008 181.488 68.2021 181.44C68.3088 181.397 68.4208 181.357 68.5381 181.32C68.6608 181.288 68.7835 181.267 68.9061 181.256V181.224C68.6128 181.133 68.3461 181.013 68.1061 180.864C67.8661 180.709 67.6581 180.525 67.4821 180.312C67.3115 180.099 67.1781 179.853 67.0821 179.576C66.9861 179.299 66.9381 178.992 66.9381 178.656C66.9381 178.251 67.0048 177.891 67.1381 177.576C67.2768 177.256 67.4741 177.005 67.7301 176.824C67.9861 176.643 68.2981 176.552 68.6661 176.552C68.9968 176.552 69.2661 176.632 69.4741 176.792C69.6875 176.947 69.8395 177.157 69.9301 177.424H69.9781C70.0635 177.152 70.2021 176.939 70.3941 176.784C70.5915 176.629 70.8395 176.552 71.1381 176.552C71.4208 176.552 71.6635 176.629 71.8661 176.784C72.0688 176.939 72.2128 177.152 72.2981 177.424H72.3381C72.4341 177.157 72.5861 176.947 72.7941 176.792C73.0075 176.632 73.2741 176.552 73.5941 176.552C73.9675 176.552 74.2821 176.645 74.5381 176.832C74.7995 177.019 74.9968 177.277 75.1301 177.608C75.2688 177.939 75.3381 178.32 75.3381 178.752C75.3381 179.131 75.2981 179.477 75.2181 179.792C75.1381 180.107 75.0101 180.429 74.8341 180.76L73.7941 180.384C73.9168 180.117 74.0021 179.853 74.0501 179.592C74.0981 179.331 74.1221 179.059 74.1221 178.776C74.1221 178.339 74.0635 178.019 73.9461 177.816C73.8341 177.613 73.6741 177.512 73.4661 177.512C73.2795 177.512 73.1381 177.597 73.0421 177.768C72.9461 177.933 72.8981 178.173 72.8981 178.488V179.64H71.7461V178.416C71.7461 178.16 71.7008 177.947 71.6101 177.776C71.5195 177.6 71.3621 177.512 71.1381 177.512C70.9248 177.512 70.7701 177.597 70.6741 177.768C70.5781 177.933 70.5301 178.149 70.5301 178.416V179.64H69.3781V178.488C69.3781 178.189 69.3328 177.952 69.2421 177.776C69.1515 177.6 69.0048 177.512 68.8021 177.512C68.6048 177.512 68.4475 177.608 68.3301 177.8C68.2128 177.987 68.1541 178.283 68.1541 178.688C68.1541 179.003 68.2048 179.285 68.3061 179.536C68.4075 179.781 68.5541 179.997 68.7461 180.184C68.9381 180.365 69.1675 180.52 69.4341 180.648C69.7008 180.776 70.0021 180.88 70.3381 180.96C70.7488 181.056 71.1221 181.176 71.4581 181.32C71.7941 181.469 72.0848 181.645 72.3301 181.848C72.5755 182.051 72.7648 182.288 72.8981 182.56L72.0261 183ZM76.5113 181C76.41 180.76 76.3246 180.528 76.2553 180.304C76.1913 180.075 76.1406 179.837 76.1033 179.592C76.0713 179.347 76.0553 179.083 76.0553 178.8C76.0553 178.352 76.13 177.96 76.2793 177.624C76.4286 177.283 76.6526 177.019 76.9513 176.832C77.2553 176.645 77.634 176.552 78.0873 176.552C78.5406 176.552 78.9166 176.645 79.2153 176.832C79.5193 177.019 79.746 177.283 79.8953 177.624C80.05 177.96 80.1273 178.352 80.1273 178.8C80.1273 179.083 80.1086 179.347 80.0713 179.592C80.0393 179.837 79.9886 180.075 79.9193 180.304C79.8553 180.528 79.77 180.76 79.6633 181H78.5193C78.658 180.648 78.7593 180.291 78.8233 179.928C78.8926 179.56 78.9273 179.192 78.9273 178.824C78.9273 178.531 78.8926 178.288 78.8233 178.096C78.7593 177.899 78.6633 177.752 78.5353 177.656C78.4126 177.56 78.2633 177.512 78.0873 177.512C77.9113 177.512 77.7593 177.56 77.6313 177.656C77.5086 177.747 77.4153 177.891 77.3513 178.088C77.2873 178.28 77.2553 178.528 77.2553 178.832C77.2553 179.083 77.2686 179.331 77.2953 179.576C77.3273 179.816 77.3726 180.056 77.4313 180.296C77.4953 180.531 77.5726 180.765 77.6633 181H76.5113Z" fill="white"/>
<path d="M7.076 57.976V61H5.912V52.384H7.076V56.56L11.252 52.384H12.86L9.272 55.864L12.956 61H11.444L8.432 56.68L7.076 57.976ZM12.9434 57.856C12.9434 56.236 13.8554 54.544 15.8594 54.544C17.8634 54.544 18.7754 56.236 18.7754 57.856C18.7754 59.476 17.8634 61.168 15.8594 61.168C13.8554 61.168 12.9434 59.476 12.9434 57.856ZM14.0354 57.856C14.0354 58.696 14.3474 60.256 15.8594 60.256C17.3714 60.256 17.6834 58.696 17.6834 57.856C17.6834 57.016 17.3714 55.456 15.8594 55.456C14.3474 55.456 14.0354 57.016 14.0354 57.856ZM24.5554 56.512H23.5354C23.5234 56.116 23.3794 55.456 22.0474 55.456C21.7234 55.456 20.7994 55.564 20.7994 56.344C20.7994 56.86 21.1234 56.98 21.9394 57.184L22.9954 57.448C24.3034 57.772 24.7594 58.252 24.7594 59.104C24.7594 60.4 23.6914 61.18 22.2754 61.18C19.7914 61.18 19.6114 59.74 19.5754 58.984H20.5954C20.6314 59.476 20.7754 60.268 22.2634 60.268C23.0194 60.268 23.7034 59.968 23.7034 59.272C23.7034 58.768 23.3554 58.6 22.4554 58.372L21.2314 58.072C20.3554 57.856 19.7794 57.412 19.7794 56.548C19.7794 55.168 20.9194 54.544 22.1554 54.544C24.3994 54.544 24.5554 56.2 24.5554 56.512ZM31.0834 56.728V61H30.0274V56.896C30.0274 56.044 29.7874 55.492 28.7794 55.492C27.9154 55.492 27.0274 55.996 27.0274 57.58V61H25.9714V52.384H27.0274V55.564H27.0514C27.3514 55.168 27.8794 54.544 28.8874 54.544C29.8594 54.544 31.0834 54.94 31.0834 56.728ZM32.2794 57.856C32.2794 56.236 33.1914 54.544 35.1954 54.544C37.1994 54.544 38.1114 56.236 38.1114 57.856C38.1114 59.476 37.1994 61.168 35.1954 61.168C33.1914 61.168 32.2794 59.476 32.2794 57.856ZM33.3714 57.856C33.3714 58.696 33.6834 60.256 35.1954 60.256C36.7074 60.256 37.0194 58.696 37.0194 57.856C37.0194 57.016 36.7074 55.456 35.1954 55.456C33.6834 55.456 33.3714 57.016 33.3714 57.856ZM41.3276 59.836L43.1036 54.724H44.2556L41.8676 61H40.7396L38.4476 54.724H39.6716L41.3036 59.836H41.3276ZM45.7629 56.632H44.7909C44.8389 55.132 45.8349 54.544 47.3829 54.544C47.8869 54.544 49.7109 54.688 49.7109 56.296V59.908C49.7109 60.172 49.8429 60.28 50.0589 60.28C50.1549 60.28 50.2869 60.256 50.4069 60.232V61C50.2269 61.048 50.0709 61.12 49.8309 61.12C48.8949 61.12 48.7509 60.64 48.7149 60.16C48.3069 60.604 47.6709 61.18 46.4469 61.18C45.2949 61.18 44.4789 60.448 44.4789 59.368C44.4789 58.84 44.6349 57.616 46.3869 57.4L48.1269 57.184C48.3789 57.16 48.6789 57.064 48.6789 56.44C48.6789 55.78 48.1989 55.42 47.2029 55.42C46.0029 55.42 45.8349 56.152 45.7629 56.632ZM48.6549 58.828V57.796C48.4869 57.928 48.2229 58.024 46.9149 58.192C46.3989 58.264 45.5709 58.42 45.5709 59.212C45.5709 59.896 45.9189 60.304 46.7109 60.304C47.6949 60.304 48.6549 59.668 48.6549 58.828ZM56.6068 56.728V61H55.5508V57.136C55.5508 56.044 55.2388 55.492 54.2068 55.492C53.6068 55.492 52.5508 55.876 52.5508 57.58V61H51.4948V54.724H52.4908V55.612H52.5148C52.7428 55.276 53.3308 54.544 54.4108 54.544C55.3828 54.544 56.6068 54.94 56.6068 56.728ZM59.2428 54.724V61H58.1868V54.724H59.2428ZM59.2428 53.584H58.1868V52.384H59.2428V53.584ZM70.5828 54.904H69.4908C69.4308 53.572 68.3268 53.152 67.3548 53.152C66.6228 53.152 65.3868 53.356 65.3868 54.664C65.3868 55.396 65.9028 55.636 66.4068 55.756L68.8668 56.32C69.9828 56.584 70.8228 57.256 70.8228 58.624C70.8228 60.664 68.9268 61.228 67.4508 61.228C65.8548 61.228 65.2308 60.748 64.8468 60.4C64.1148 59.74 63.9708 59.02 63.9708 58.216H65.0628C65.0628 59.776 66.3348 60.232 67.4388 60.232C68.2788 60.232 69.6948 60.016 69.6948 58.78C69.6948 57.88 69.2748 57.592 67.8588 57.256L66.0948 56.848C65.5308 56.716 64.2588 56.32 64.2588 54.82C64.2588 53.476 65.1348 52.156 67.2228 52.156C70.2348 52.156 70.5348 53.956 70.5828 54.904ZM74.4707 55.6H73.4627V59.68C73.4627 60.172 73.8827 60.172 74.0987 60.172H74.4707V61C74.0867 61.036 73.7867 61.084 73.6787 61.084C72.6347 61.084 72.4067 60.496 72.4067 59.74V55.6H71.5547V54.724H72.4067V52.972H73.4627V54.724H74.4707V55.6Z" fill="white"/>
<path d="M278 170H276C273.239 170 271 172.239 271 175V177C271 179.761 273.239 182 276 182H278C280.761 182 283 179.761 283 177V175C283 172.239 280.761 170 278 170Z" stroke="white"/>
</svg>
